<?xml version="1.0" encoding="UTF-8"?>
<svg width="14px" height="30px" viewBox="0 0 14 30" version="1.1" xmlns="http://www.w3.org/2000/svg" xmlns:xlink="http://www.w3.org/1999/xlink">
    <!-- Generator: Sketch 46 (44423) - http://www.bohemiancoding.com/sketch -->
    <title>if_06-facebook_104498 (1)</title>
    <desc>Created with Sketch.</desc>
    <defs></defs>
    <g id="Page-1" stroke="none" stroke-width="1" fill="none" fill-rule="evenodd">
        <g id="Group-17" transform="translate(-1062.000000, -565.000000)" fill-rule="nonzero" fill="#FFFFFF">
            <g id="if_06-facebook_104498-(1)" transform="translate(1062.000000, 565.000000)">
                <path d="M14,9.71413786 L9.23209195,9.71413786 L9.23209195,6.60049679 C9.23209195,5.43117367 10.0104241,5.1585593 10.5586244,5.1585593 C11.1055773,5.1585593 13.9232894,5.1585593 13.9232894,5.1585593 L13.9232894,0.0180086939 L9.289469,0 C4.1454918,0 2.97487527,3.83398882 2.97487527,6.28751811 L2.97487527,9.71413786 L0,9.71413786 L0,15.0111778 L2.97487527,15.0111778 C2.97487527,21.8091492 2.97487527,30 2.97487527,30 L9.23209195,30 C9.23209195,30 9.23209195,21.7284206 9.23209195,15.0111778 L13.4542944,15.0111778 L14,9.71413786 Z" id="Shape"></path>
            </g>
        </g>
    </g>
</svg>