<?xml version="1.0" encoding="UTF-8"?>
<svg width="146px" height="104px" viewBox="0 0 146 104" version="1.1" xmlns="http://www.w3.org/2000/svg" xmlns:xlink="http://www.w3.org/1999/xlink">
    <!-- Generator: Sketch 46 (44423) - http://www.bohemiancoding.com/sketch -->
    <title>Asset 1</title>
    <desc>Created with Sketch.</desc>
    <defs></defs>
    <g id="Page-1" stroke="none" stroke-width="1" fill="none" fill-rule="evenodd">
        <g id="Asset-1" fill-rule="nonzero" fill="#46A4AF">
            <path d="M10.4285714,20.8 L135.571429,20.8 C141.33097,20.8 146,16.1437614 146,10.4 C146,4.6562386 141.33097,3.51703951e-16 135.571429,0 L10.4285714,0 C4.66903047,-3.51703951e-16 7.0534034e-16,4.6562386 0,10.4 C-7.0534034e-16,16.1437614 4.66903047,20.8 10.4285714,20.8 Z M135.571429,41.6 L10.4285714,41.6 C4.66903047,41.6 7.0534034e-16,46.2562386 0,52 C-7.0534034e-16,57.7437614 4.66903047,62.4 10.4285714,62.4 L135.571429,62.4 C141.33097,62.4 146,57.7437614 146,52 C146,46.2562386 141.33097,41.6 135.571429,41.6 Z M135.571429,83.2 L10.4285714,83.2 C4.66903047,83.2 7.0534034e-16,87.8562386 0,93.6 C-7.0534034e-16,99.3437614 4.66903047,104 10.4285714,104 L135.571429,104 C141.33097,104 146,99.3437614 146,93.6 C146,87.8562386 141.33097,83.2 135.571429,83.2 Z" id="Shape"></path>
        </g>
    </g>
</svg>